<svg id="Layer_1" data-name="Layer 1" xmlns="http://www.w3.org/2000/svg" xmlns:xlink="http://www.w3.org/1999/xlink" width="147.95" height="60.23" viewBox="0 0 147.95 60.23"><defs><style>.cls-1{fill:none;}.cls-2{fill:#88c698;}.cls-3{fill:#374b4c;}.cls-4{clip-path:url(#clip-path);}.cls-5{fill:url(#linear-gradient);}.cls-6{fill:url(#linear-gradient-2);}.cls-7{fill:url(#linear-gradient-3);}.cls-8{fill:url(#linear-gradient-4);}</style><clipPath id="clip-path" transform="translate(-0.04 0.23)"><circle class="cls-1" cx="28.85" cy="28.85" r="28.85"/></clipPath><linearGradient id="linear-gradient" x1="20.35" y1="60.58" x2="8.7" y2="43.52" gradientTransform="matrix(1, 0, 0, -1, -0.03, 62.2)" gradientUnits="userSpaceOnUse"><stop offset="0" stop-color="#1e3c3d"/><stop offset="1" stop-color="#006b6e"/></linearGradient><linearGradient id="linear-gradient-2" x1="22.67" y1="50.11" x2="5.67" y2="34.66" gradientTransform="matrix(1, 0, 0, -1, -0.03, 62.2)" gradientUnits="userSpaceOnUse"><stop offset="0" stop-color="#651859"/><stop offset="1" stop-color="#cd4d9b"/></linearGradient><linearGradient id="linear-gradient-3" x1="33.65" y1="21.6" x2="18.97" y2="9.62" gradientTransform="matrix(1, 0, 0, -1, -0.03, 62.2)" gradientUnits="userSpaceOnUse"><stop offset="0" stop-color="#007c66"/><stop offset="1" stop-color="#64c6c3"/></linearGradient><linearGradient id="linear-gradient-4" x1="27.77" y1="32.44" x2="3.43" y2="13.12" gradientTransform="matrix(1, 0, 0, -1, -0.03, 62.2)" gradientUnits="userSpaceOnUse"><stop offset="0" stop-color="#00668e"/><stop offset="0.55" stop-color="#00b8ec"/></linearGradient></defs><title>cirrus-logo</title><path class="cls-2" d="M41.2,47.74h0.9v8.74h5.33v0.77H41.2V47.74Z" transform="translate(-0.04 0.23)"/><path class="cls-2" d="M54.34,53.82c0,2-1.15,3.64-3.25,3.64s-3.25-1.67-3.25-3.64,1.15-3.64,3.25-3.64S54.34,51.85,54.34,53.82Zm-5.66,0c0,1.47.8,2.93,2.41,2.93s2.41-1.47,2.41-2.93-0.8-2.93-2.41-2.93S48.68,52.35,48.68,53.82Z" transform="translate(-0.04 0.23)"/><path class="cls-2" d="M61.4,56.7c0,2-.8,3.3-3,3.3-1.37,0-2.73-.61-2.85-2.08h0.84a1.81,1.81,0,0,0,2,1.37c1.55,0,2.21-.92,2.21-2.6V55.76h0a2.38,2.38,0,0,1-2.18,1.41c-2.2,0-3.1-1.57-3.1-3.53s1.12-3.46,3.1-3.46a2.42,2.42,0,0,1,2.18,1.39h0V50.38H61.4V56.7Zm-0.84-3c0-1.35-.63-2.85-2.21-2.85s-2.26,1.43-2.26,2.85,0.72,2.73,2.26,2.73,2.21-1.29,2.21-2.69v0Z" transform="translate(-0.04 0.23)"/><path class="cls-2" d="M63,47.74h0.84v1.35H63V47.74Zm0,2.64h0.84v6.87H63V50.38Z" transform="translate(-0.04 0.23)"/><path class="cls-2" d="M69.58,52.39a1.58,1.58,0,0,0-1.63-1.52H67.78A1.38,1.38,0,0,0,66.16,52v0.09c0,0.75.85,1,1.43,1.16l1.12,0.25a2,2,0,0,1,2,1.91c0,1.49-1.48,2.07-2.76,2.07A2.49,2.49,0,0,1,65.08,55h0.84a1.81,1.81,0,0,0,1.89,1.73h0.11c0.79,0,1.88-.35,1.88-1.31,0-.8-0.75-1.07-1.51-1.25L67.23,54c-1.09-.29-1.92-0.67-1.92-1.84,0-1.4,1.37-1.93,2.58-1.93a2.25,2.25,0,0,1,2.52,2.21H69.58v0Z" transform="translate(-0.04 0.23)"/><path class="cls-2" d="M73.2,50.38h1.4v0.71H73.2v4.64c0,0.55.08,0.87,0.68,0.91a6.5,6.5,0,0,0,.72,0v0.72H73.85c-1.12,0-1.51-.37-1.49-1.55v-4.7h-1.2V50.38h1.2V48.32H73.2v2.07h0Z" transform="translate(-0.04 0.23)"/><path class="cls-2" d="M75.82,47.74h0.84v1.35H75.82V47.74Zm0,2.64h0.84v6.87H75.82V50.38Z" transform="translate(-0.04 0.23)"/><path class="cls-2" d="M83.12,52.54a1.87,1.87,0,0,0-1.94-1.65c-1.61,0-2.41,1.47-2.41,2.93s0.8,2.93,2.41,2.93a2,2,0,0,0,2-2H84a2.8,2.8,0,0,1-2.84,2.66c-2.1,0-3.25-1.67-3.25-3.64s1.15-3.64,3.25-3.64A2.57,2.57,0,0,1,84,52.41s0,0.09,0,.13H83.12Z" transform="translate(-0.04 0.23)"/><path class="cls-2" d="M89.3,52.39a1.58,1.58,0,0,0-1.63-1.52H87.5A1.38,1.38,0,0,0,85.88,52v0.09c0,0.75.85,1,1.43,1.16l1.12,0.25a2,2,0,0,1,2,1.91c0,1.49-1.48,2.07-2.76,2.07A2.49,2.49,0,0,1,84.8,55h0.84a1.81,1.81,0,0,0,1.89,1.73h0.11c0.79,0,1.88-.35,1.88-1.31,0-.8-0.75-1.07-1.51-1.25L87,54c-1.13-.34-2-0.71-2-1.89,0-1.4,1.37-1.93,2.58-1.93a2.25,2.25,0,0,1,2.52,2.21H89.3Z" transform="translate(-0.04 0.23)"/><path class="cls-3" d="M63.68,20.68a9.51,9.51,0,0,0-9.62-7.6c-8.3,0-11.81,6.94-11.81,13.79s3.51,13.79,11.81,13.79c5.8,0,9.48-4.48,10.06-10.06h3c-0.83,7.69-5.71,12.6-13,12.6-9.88,0-14.8-7.77-14.8-16.34s4.92-16.34,14.8-16.34c5.93,0,11.81,3.56,12.6,10.14h-3Z" transform="translate(-0.04 0.23)"/><path class="cls-3" d="M71.62,11.19h2.77v4.44H71.62V11.19Zm0,8.69h2.77V42.55H71.62V19.89h0Z" transform="translate(-0.04 0.23)"/><path class="cls-3" d="M144.44,26.52c-0.13-3.43-2.77-5-5.93-5-2.46,0-5.36,1-5.36,3.91,0,2.46,2.81,3.34,4.7,3.82l3.69,0.83c3.16,0.48,6.45,2.33,6.45,6.28,0,4.92-4.87,6.81-9.09,6.81-5.27,0-8.87-2.46-9.31-8h2.77c0.22,3.73,3,5.67,6.68,5.67,2.59,0,6.19-1.14,6.19-4.3,0-2.63-2.46-3.51-5-4.13l-3.56-.79c-3.6-1-6.32-2.2-6.32-6.06,0-4.61,4.52-6.37,8.52-6.37,4.52,0,8.12,2.37,8.3,7.29H144.4Z" transform="translate(-0.04 0.23)"/><path class="cls-3" d="M93.55,28.67V42.55h2.77V30.47c0-5.22,2.67-8.14,8.43-8.12V19.82C95.17,19.67,93.55,26.27,93.55,28.67Z" transform="translate(-0.04 0.23)"/><path class="cls-3" d="M79.82,28.67V42.55h2.77V30.47c0-5.22,2.67-8.14,8.43-8.12V19.82C81.43,19.67,79.82,26.27,79.82,28.67Z" transform="translate(-0.04 0.23)"/><path class="cls-3" d="M123.5,19.89V34.41c0,4.37-1.67,6.14-6.06,6.14h-0.07c-4.39,0-6.05-1.76-6.06-6.14V19.89h-2.77V34.6c0,5.23,2.13,8.56,8.83,8.6h0.07c6.7,0,8.83-3.37,8.83-8.6V19.89H123.5Z" transform="translate(-0.04 0.23)"/><g class="cls-4"><path class="cls-5" d="M17.71,3.77h0a31.79,31.79,0,0,1,11-3v-1a29.35,29.35,0,0,0-11.57,2.7A29.15,29.15,0,0,0,2,18.22,32.52,32.52,0,0,1,17.71,3.77Z" transform="translate(-0.04 0.23)"/><path class="cls-6" d="M22.47,14.26A46.17,46.17,0,0,1,28.72,12V3.86A35.82,35.82,0,0,0,19.1,6.77h0a38.32,38.32,0,0,0-11.17,7.7C4.65,17.58,1.87,21,.45,25.8a12.77,12.77,0,0,0-.41,3,29,29,0,0,0,2.7,12.43c-0.1-.48-0.16-1-0.21-1.46C1.29,32.41,7.42,21.07,22.47,14.26Z" transform="translate(-0.04 0.23)"/><path class="cls-7" d="M28.72,57.8a7.36,7.36,0,0,1-5.12-2.43,4.46,4.46,0,0,1-.81-1.44l-0.06-.19a1.08,1.08,0,0,0-.09-0.29,5.53,5.53,0,0,1-.12-0.62h0c-0.39-3.26,1.87-7.15,6.2-10.36v-10C8.59,43,17.9,55.2,19.85,56.46a27.4,27.4,0,0,0,7.73,1.37h1.13v0h0Z" transform="translate(-0.04 0.23)"/><path class="cls-8" d="M12.64,42c3-6.9,8.67-11.65,15.67-14.8L28.72,27V16.6a41.2,41.2,0,0,0-4.39,1.69h0C10.55,24.53,6.1,34.42,5.19,38.1c-0.7,2.84-1,4.81.28,7.66a29.24,29.24,0,0,0,10.62,9.11C14,53.29,9.57,49,12.64,42Z" transform="translate(-0.04 0.23)"/></g></svg>